# xmcd
#
# Track frame offsets:
#	150
#	11367
#	23630
#	38227
#	48612
#	63652
#	75730
#	90437
#	104130
#	120825
#	130445
#	140930
#
# Disc length: 2162 seconds
#
# Revision: 1
# Processed by: cddbd v1.5.1PL2 Copyright (c) Steve Scherf et al.
# Submitted via: audiograbber 1.83.01
#
DISCID=a208700c
DTITLE=Wild and Blue - Come On In and Make Yourself at Home
DYEAR=1900
DGENRE=Bluegrass
TTITLE0=Come On In And Make Yourself At Home
TTITLE1=Sundown And Sorrow
TTITLE2=River Of Tears
TTITLE3=Sooner Or Later
TTITLE4=Leaving Gatesville
TTITLE5=Quiet While I'm Behind
TTITLE6=When Someone Wants To Leave
TTITLE7=Mountain Memories
TTITLE8=You Were Only Fooling
TTITLE9=High Country Breakdown
TTITLE10=Will You Travel Down This Road With Me
TTITLE11=You Must Come In At The Door
EXTD=
EXTT0=
EXTT1=
EXTT2=
EXTT3=
EXTT4=
EXTT5=
EXTT6=
EXTT7=
EXTT8=
EXTT9=
EXTT10=
EXTT11=
PLAYORDER=
